inDegrees=no
num_controls=7
num_derivatives=13
num_iterations=106
num_multipliers=7
num_parameters=0
num_slacks=7
num_states=26
objective=0.516885
objective_accelerations=0.039804
objective_balance=0.002298
objective_effort=0.044288
objective_height=0.418842
objective_ligament=0.011653
solver_duration=1401.422826
status=Solve_Succeeded
success=true
DataType=double
version=3
OpenSimVersion=4.5
endheader
time	/jointset/ground_pelvis/pelvis_tilt/value	/jointset/ground_pelvis/pelvis_tx/value	/jointset/ground_pelvis/pelvis_ty/value	/jointset/hip_l/hip_flexion_l/value	/jointset/hip_l/hip_adduction_l/value	/jointset/hip_l/hip_rotation_l/value	/jointset/back/lumbar_extension/value	/jointset/patellofemoral_l/patellar_flexion_l/value	/jointset/knee_l/knee_flexion_l/value	/jointset/knee_l/knee_adduction_l/value	/jointset/knee_l/knee_rotation_l/value	/jointset/ankle_l/ankle_angle_l/value	/jointset/subtalar_l/subtalar_angle_l/value	/jointset/ground_pelvis/pelvis_tilt/speed	/jointset/ground_pelvis/pelvis_tx/speed	/jointset/ground_pelvis/pelvis_ty/speed	/jointset/hip_l/hip_flexion_l/speed	/jointset/hip_l/hip_adduction_l/speed	/jointset/hip_l/hip_rotation_l/speed	/jointset/back/lumbar_extension/speed	/jointset/patellofemoral_l/patellar_flexion_l/speed	/jointset/knee_l/knee_flexion_l/speed	/jointset/knee_l/knee_adduction_l/speed	/jointset/knee_l/knee_rotation_l/speed	/jointset/ankle_l/ankle_angle_l/speed	/jointset/subtalar_l/subtalar_angle_l/speed	/forceset/tau_hip_flexion_l	/forceset/tau_hip_adduction_l	/forceset/tau_hip_rotation_l	/forceset/tau_knee_flexion_l	/forceset/tau_ankle_angle_l	/forceset/tau_subtalar_angle_l	/forceset/tau_lumbar_extension	lambda_cid13_p0	lambda_cid13_p1	lambda_cid13_p2	lambda_cid13_p3	lambda_cid13_p4	lambda_cid13_p5	lambda_cid14_p0	/jointset/ground_pelvis/pelvis_tilt/accel	/jointset/ground_pelvis/pelvis_tx/accel	/jointset/ground_pelvis/pelvis_ty/accel	/jointset/hip_l/hip_flexion_l/accel	/jointset/hip_l/hip_adduction_l/accel	/jointset/hip_l/hip_rotation_l/accel	/jointset/back/lumbar_extension/accel	/jointset/patellofemoral_l/patellar_flexion_l/accel	/jointset/knee_l/knee_flexion_l/accel	/jointset/knee_l/knee_adduction_l/accel	/jointset/knee_l/knee_rotation_l/accel	/jointset/ankle_l/ankle_angle_l/accel	/jointset/subtalar_l/subtalar_angle_l/accel	gamma_cid13_p0	gamma_cid13_p1	gamma_cid13_p2	gamma_cid13_p3	gamma_cid13_p4	gamma_cid13_p5	gamma_cid14_p0
1.5	-0.01860580177481995	-0.02969088934455755	0.867866519882583	0.6404998958464669	-0.3104628500043064	-0.1805746926434633	-0.7882661121036451	0.635951515537547	0.6359515155375313	-0.1041860153730609	-0.1743396428186545	0.06289019082038116	0.005399260901502544	0.4008197579114683	0.2877362357503992	0.346023076683026	-1.885176399539726	0.08866422499476284	-0.5213682161309788	0.8433635713477462	-1.623818615661954	-1.623818615661961	-0.1404256876162635	-0.00104466456901255	-0.2276216789671927	0.02282620433745884	-0.209651625129108	0.02566166104446304	-0.004296507860258753	-0.1888600042740745	0.1052143769547513	0.03649601619518011	0.2844498696629938	-9.236602961251293	-16.16181835132057	4.325551424479833	-9.107858468654884	-674.0718377814023	-71.60059622855776	-20.02785961778892	0.01549799453862549	0.6576475752109133	-0.491751690980182	-0.7052914655569779	0.2952906674329305	-0.256434182481692	1.81594528872321	-0.6449276568929551	-0.6449276568929648	-0.3010823431279542	0.01849481560837163	0.05576452001762875	0.3237449691228281	-2.78991854220746e-09	1.086740752027358e-06	2.05919498409446e-07	1.6807993169818e-07	8.491656941004209e-08	1.291007398655746e-07	1.042491483441485e-07
1.51	-0.0145972478557084	-0.02678093027389	0.8713014862236287	0.6216148851550576	-0.3095620143491752	-0.1858021915957634	-0.7797430077620844	0.6196831797230204	0.6196831797229853	-0.1056055373700249	-0.1743509265472487	0.06061705319504779	0.005643186596605661	0.4008395674279258	0.2942234052583785	0.3409031234349715	-1.891590865117352	0.09148351915372128	-0.5240499453374612	0.8611320336792659	-1.629626822869312	-1.629626822869295	-0.1435092022854936	-0.001197025553146924	-0.2269598388093211	0.02595109279537159	-0.2019423204810326	0.02458567614463686	-0.004216237640849479	-0.1863380823333262	0.104646626143725	0.0356859950258364	0.2772728952475733	-9.215302360237329	-15.87531178388179	4.350186277941016	-8.876714786012055	-670.160967650013	-71.65514203516047	-20.49310993986769	-0.01250709724849167	0.6394603149041411	-0.5321612611840588	-0.5743060637910512	0.2721521032304702	-0.2617183518261538	1.738507213236807	-0.515528572630723	-0.5155285726272284	-0.3163508277530578	-0.02982352426022033	0.07832492038724058	0.3054803473073824	-1.02273187967005e-08	1.103119944003161e-06	2.309582347467089e-07	1.714776045829669e-07	8.198252983757487e-08	1.291827799866625e-07	1.013656038401067e-07
1.52	-0.01059004174689515	-0.02380705777288051	0.874683244208301	0.6026727734159066	-0.3086336050897809	-0.1910540430525927	-0.7710459766956336	0.6033634095724096	0.6033634095723928	-0.1070567674735134	-0.17436327827943	0.05835192020264064	0.005918085088924953	0.4005501958464442	0.3005189218187877	0.3353814054083424	-1.896596609092011	0.09417894583678635	-0.5262387170277238	0.8781489163255968	-1.634105482875606	-1.634105482875565	-0.146767308912007	-0.001258265290721752	-0.2260207523828438	0.02902076378055577	-0.1942330158329836	0.02350969124478542	-0.004135967421464579	-0.1838161603925752	0.1040788753327004	0.03487597385647365	0.2700959208321359	-9.199523439870639	-15.58759760993251	4.374353496472392	-8.648891898078514	-666.3439360015394	-71.72550486532809	-20.9346879683443	-0.04633822504884215	0.6193169856967	-0.5721046466951196	-0.4235471449633854	0.2705171722543349	-0.1578426792377104	1.665629351685675	-0.3790182166802772	-0.3790182166802778	-0.3360007345845465	0.03671906492029225	0.1112137737384745	0.3127014745770623	-1.87760536489052e-08	1.117846652005507e-06	2.612866683863164e-07	1.749321900404765e-07	7.807273683209618e-08	1.271136227305289e-07	9.75677503799468e-08
1.53	-0.006587385443200844	-0.02077127413537024	0.8780078296095973	0.5836878359152907	-0.3076787008705685	-0.1963259325162004	-0.7621826145715942	0.5870055097921387	0.5870055097920764	-0.1085408276610466	-0.1743761381319127	0.05609754295681715	0.006223583165286251	0.3999205390152972	0.3065967823059519	0.3294740713605953	-1.900138942744117	0.0967913938479744	-0.528106283453772	0.8943873020555433	-1.637251025034827	-1.63725102503481	-0.1500286142065406	-0.001330724069110623	-0.2248122896311499	0.03208035527882647	-0.1864039083492374	0.02239761440485297	-0.004126369899541176	-0.1813981364757173	0.1035333579976702	0.03399524406826773	0.2628058929017331	-9.190050493295805	-15.26593166438813	4.390664869789585	-8.346449275754864	-662.6523871910126	-71.75784386420843	-21.34981531542985	-0.08037248910545154	0.5959031386912328	-0.6092742117873342	-0.2818010211890301	0.2548294158343542	-0.1962133615850657	1.582512220304209	-0.248823042531675	-0.2488230425354171	-0.3185607735642158	-0.03174955731020244	0.132053075577421	0.3025969679926931	-2.850558151117853e-08	1.130817595786056e-06	2.972354054096651e-07	1.78447245106504e-07	7.312620580404283e-08	1.227588182610976e-07	9.279844365391153e-08
